<svg width="112" height="107" viewBox="0 0 112 107" fill="none" xmlns="http://www.w3.org/2000/svg">
<path d="M12.3113 89.3664C6.45341 83.5085 6.4534 74.011 12.3113 68.1532L28.93 51.5344L56.1554 78.7598L39.5366 95.3785C33.6788 101.236 24.1813 101.236 18.3234 95.3785L12.3113 89.3664Z" fill="#FF7272"/>
<path d="M11.5843 16.7129C5.42841 22.2568 5.4284 31.2452 11.5842 36.7891L29.0484 52.5171L57.6586 26.751L40.1945 11.0229C34.0387 5.47905 24.0581 5.47904 17.9022 11.0229L11.5843 16.7129Z" fill="#FF7272"/>
<path d="M93.8218 95.5817C88.0025 101.478 78.5053 101.54 72.6091 95.7209L55.8817 79.2115L82.9279 51.8081L99.6553 68.3175C105.551 74.1368 105.614 83.6341 99.7944 89.5303L93.8218 95.5817Z" fill="#FF7272"/>
<path d="M94.6389 10.5572C88.5194 4.97324 78.5391 4.90812 72.3472 10.4118L54.7809 26.0256L83.2224 51.978L100.789 36.3641C106.981 30.8605 107.039 21.8722 100.92 16.2882L94.6389 10.5572Z" fill="#FF7272"/>
<rect x="29.7" y="27.1665" width="53.9035" height="52.3634" fill="#FF7272"/>
</svg>
